<svg width="234" height="50" viewBox="0 0 234 50" fill="none" xmlns="http://www.w3.org/2000/svg">
<path d="M37.0469 39L37.0069 22.2L28.7669 36.04H25.8469L17.6469 22.56V39H11.5669V11H16.9269L27.4069 28.4L37.7269 11H43.0469L43.1269 39H37.0469ZM68.41 33H55.41L52.93 39H46.29L58.77 11H65.17L77.69 39H70.89L68.41 33ZM66.37 28.08L61.93 17.36L57.49 28.08H66.37ZM98.635 39L93.235 31.2H92.915H87.275V39H80.795V11H92.915C95.395 11 97.5417 11.4133 99.355 12.24C101.195 13.0667 102.608 14.24 103.595 15.76C104.582 17.28 105.075 19.08 105.075 21.16C105.075 23.24 104.568 25.04 103.555 26.56C102.568 28.0533 101.155 29.2 99.315 30L105.595 39H98.635ZM98.515 21.16C98.515 19.5867 98.0083 18.3867 96.995 17.56C95.9817 16.7067 94.5017 16.28 92.555 16.28H87.275V26.04H92.555C94.5017 26.04 95.9817 25.6133 96.995 24.76C98.0083 23.9067 98.515 22.7067 98.515 21.16ZM120.609 28L116.849 31.92V39H110.409V11H116.849V24.08L129.249 11H136.449L124.849 23.48L137.129 39H129.569L120.609 28ZM140.218 11H146.698V39H140.218V11ZM159.343 16.28H150.383V11H174.783V16.28H165.823V39H159.343V16.28ZM189.998 11H196.478V39H189.998V11ZM233.603 42C232.696 43.12 231.59 43.9733 230.283 44.56C229.003 45.1467 227.59 45.44 226.043 45.44C223.963 45.44 222.083 44.9867 220.403 44.08C218.723 43.2 216.803 41.6267 214.643 39.36C212.11 39.04 209.843 38.2267 207.843 36.92C205.87 35.6133 204.323 33.9333 203.203 31.88C202.11 29.8 201.563 27.5067 201.563 25C201.563 22.2533 202.216 19.7867 203.523 17.6C204.856 15.3867 206.683 13.6533 209.003 12.4C211.35 11.1467 213.976 10.52 216.883 10.52C219.79 10.52 222.403 11.1467 224.723 12.4C227.043 13.6533 228.87 15.3867 230.203 17.6C231.536 19.7867 232.203 22.2533 232.203 25C232.203 28.2533 231.283 31.1067 229.443 33.56C227.63 36.0133 225.216 37.72 222.203 38.68C222.87 39.3733 223.51 39.8667 224.123 40.16C224.763 40.48 225.443 40.64 226.163 40.64C227.896 40.64 229.416 39.9467 230.723 38.56L233.603 42ZM208.123 25C208.123 26.7333 208.496 28.28 209.243 29.64C210.016 31 211.07 32.0667 212.403 32.84C213.736 33.5867 215.23 33.96 216.883 33.96C218.536 33.96 220.03 33.5867 221.363 32.84C222.696 32.0667 223.736 31 224.483 29.64C225.256 28.28 225.643 26.7333 225.643 25C225.643 23.2667 225.256 21.72 224.483 20.36C223.736 19 222.696 17.9467 221.363 17.2C220.03 16.4267 218.536 16.04 216.883 16.04C215.23 16.04 213.736 16.4267 212.403 17.2C211.07 17.9467 210.016 19 209.243 20.36C208.496 21.72 208.123 23.2667 208.123 25Z" fill="#252B42"/>
</svg>
