<svg width="73" height="72" viewBox="0 0 73 72" fill="none" xmlns="http://www.w3.org/2000/svg">
<g clip-path="url(#clip0_136_582)">
<path d="M66.2598 19.86C65.9554 19.127 65.3729 18.5444 64.6398 18.24C64.2791 18.0863 63.8918 18.0047 63.4998 18H48.4998C47.7042 18 46.9411 18.3161 46.3785 18.8787C45.8159 19.4413 45.4998 20.2044 45.4998 21C45.4998 21.7956 45.8159 22.5587 46.3785 23.1213C46.9411 23.6839 47.7042 24 48.4998 24H56.2698L39.4998 40.77L29.6298 30.87C29.3509 30.5888 29.0191 30.3656 28.6535 30.2133C28.288 30.061 27.8959 29.9826 27.4998 29.9826C27.1038 29.9826 26.7117 30.061 26.3461 30.2133C25.9805 30.3656 25.6487 30.5888 25.3698 30.87L7.36982 48.87C7.08863 49.1489 6.86545 49.4807 6.71314 49.8463C6.56084 50.2118 6.48242 50.604 6.48242 51C6.48242 51.396 6.56084 51.7882 6.71314 52.1537C6.86545 52.5193 7.08863 52.8511 7.36982 53.13C7.64871 53.4112 7.98051 53.6344 8.34609 53.7867C8.71166 53.939 9.10378 54.0174 9.49982 54.0174C9.89585 54.0174 10.288 53.939 10.6535 53.7867C11.0191 53.6344 11.3509 53.4112 11.6298 53.13L27.4998 37.23L37.3698 47.13C37.6487 47.4112 37.9805 47.6344 38.3461 47.7867C38.7117 47.939 39.1038 48.0174 39.4998 48.0174C39.8959 48.0174 40.288 47.939 40.6535 47.7867C41.0191 47.6344 41.3509 47.4112 41.6298 47.13L60.4998 28.23V36C60.4998 36.7956 60.8159 37.5587 61.3785 38.1213C61.9411 38.6839 62.7042 39 63.4998 39C64.2955 39 65.0585 38.6839 65.6211 38.1213C66.1837 37.5587 66.4998 36.7956 66.4998 36V21C66.4951 20.608 66.4135 20.2207 66.2598 19.86V19.86Z" fill="#B719FA"/>
</g>
<defs>
<clipPath id="clip0_136_582">
<rect width="72" height="72" fill="white" transform="translate(0.5)"/>
</clipPath>
</defs>
</svg>
